<svg xmlns="http://www.w3.org/2000/svg"  viewBox="0 0 100 100" width="100px" height="100px"><path d="M 29 17 C 22.383 17 17 22.383 17 29 L 17 71 C 17 77.617 22.383 83 29 83 L 71 83 C 77.617 83 83 77.617 83 71 L 83 29 C 83 22.383 77.617 17 71 17 L 29 17 z M 29 19 L 71 19 C 76.514 19 81 23.486 81 29 L 81 71 C 81 76.514 76.514 81 71 81 L 29 81 C 23.486 81 19 76.514 19 71 L 19 29 C 19 23.486 23.486 19 29 19 z M 34.5 23 C 28.159 23 23 28.159 23 34.5 L 23 65.5 C 23 71.841 28.159 77 34.5 77 L 41.976562 77 L 58.976562 77 L 65.5 77 C 71.841 77 77 71.841 77 65.5 L 77 50.5 C 77 50.224 76.776 50 76.5 50 C 76.224 50 76 50.224 76 50.5 L 76 65.5 C 76 71.29 71.29 76 65.5 76 L 59.476562 76 L 59.476562 67.654297 C 59.476563 65.441297 58.439422 63.368 56.732422 62 L 57.425781 62 C 64.598781 62 70.433594 56.186062 70.433594 49.039062 C 70.433594 45.802062 69.233828 42.710641 67.048828 40.306641 C 67.378828 38.242641 67.384219 35.143797 66.449219 32.341797 C 66.380219 32.137797 66.189609 32 65.974609 32 C 61.923609 32 58.503172 34.689 57.076172 36 L 44.667969 36 C 41.167969 32.696 38.012563 32 35.976562 32 C 35.761563 32 35.570953 32.137797 35.501953 32.341797 C 34.733953 34.642797 34.396469 37.396609 34.605469 39.599609 C 32.006469 42.053609 30.521484 45.479016 30.521484 49.041016 C 30.521484 56.187016 36.355344 62 43.527344 62 L 44.195312 62 C 42.874313 63.032 41.928406 64.451094 41.566406 65.996094 C 39.569406 65.964094 37.279938 65.668453 36.210938 64.064453 C 33.785937 60.424453 32.562609 60.152344 30.974609 60.152344 C 30.311609 60.152344 29.812516 60.442266 29.603516 60.947266 C 29.309516 61.655266 29.652484 62.597797 30.521484 63.466797 C 31.693484 64.639797 31.694672 64.638391 32.888672 67.025391 C 33.610672 68.469391 35.679563 70.863141 41.476562 70.994141 L 41.476562 76 L 34.5 76 C 28.71 76 24 71.29 24 65.5 L 24 34.5 C 24 28.71 28.71 24 34.5 24 L 65.5 24 C 65.776 24 66 23.776 66 23.5 C 66 23.224 65.776 23 65.5 23 L 34.5 23 z M 36.337891 33.007812 C 38.205891 33.091813 40.957156 33.850344 44.035156 36.777344 L 44.126953 36.865234 C 44.219953 36.952234 44.34175 37 44.46875 37 L 57.273438 37 C 57.400437 37 57.533953 36.942469 57.626953 36.855469 C 58.818953 35.732469 61.931281 33.169812 65.613281 33.007812 C 66.412281 35.652813 66.354484 38.524906 66.021484 40.378906 C 65.993484 40.535906 66.041391 40.695547 66.150391 40.810547 C 68.266391 43.052547 69.433594 45.975062 69.433594 49.039062 C 69.433594 55.634062 64.046781 61 57.425781 61 L 54.976562 61 C 54.741562 61 54.538281 61.163578 54.488281 61.392578 C 54.437281 61.621578 54.553578 61.855125 54.767578 61.953125 C 57.019578 62.986125 58.476562 65.223297 58.476562 67.654297 L 58.476562 76 L 42.476562 76 L 42.476562 70.5 C 42.476562 70.224 42.252563 70 41.976562 70 C 37.795563 70 34.885203 68.784125 33.783203 66.578125 C 32.540203 64.093125 32.515516 64.046766 31.228516 62.759766 C 30.557516 62.087766 30.441344 61.536078 30.527344 61.330078 C 30.590344 61.175078 30.834609 61.152344 30.974609 61.152344 C 32.097609 61.152344 33.067906 61.152141 35.378906 64.619141 C 36.785906 66.728141 39.643563 67 41.976562 67 C 42.221562 67 42.42975 66.822078 42.46875 66.580078 C 42.78675 64.631078 44.209594 62.859078 46.183594 61.955078 C 46.397594 61.857078 46.515844 61.623531 46.464844 61.394531 C 46.414844 61.164531 46.211562 61 45.976562 61 L 43.529297 61 C 36.909297 61 31.521484 55.634062 31.521484 49.039062 C 31.521484 45.674062 32.958844 42.439062 35.464844 40.164062 C 35.583844 40.055063 35.645953 39.896328 35.626953 39.736328 C 35.397953 37.769328 35.675891 35.169812 36.337891 33.007812 z M 76.5 34 C 76.224 34 76 34.224 76 34.5 L 76 38 C 76 38.276 76.224 38.5 76.5 38.5 C 76.776 38.5 77 38.276 77 38 L 77 34.5 C 77 34.224 76.776 34 76.5 34 z M 76.5 41 C 76.224 41 76 41.224 76 41.5 L 76 48 C 76 48.276 76.224 48.5 76.5 48.5 C 76.776 48.5 77 48.276 77 48 L 77 41.5 C 77 41.224 76.776 41 76.5 41 z"/></svg>